<?xml version="1.0" encoding="UTF-8"?>
<svg id="Layer_2" data-name="Layer 2" xmlns="http://www.w3.org/2000/svg" viewBox="0 0 211.97 50">
  <defs>
    <style>
      .cls-1 {
        fill: none;
        stroke: #ff4359;
        stroke-width: 6px;
      }

      .cls-2 {
        fill: #fff;
      }

      .cls-3 {
        fill: #ed7d8a;
      }
    </style>
  </defs>
  <g id="Layer_1-2" data-name="Layer 1">
    <g id="Rectangle_3" data-name="Rectangle 3">
      <rect class="cls-2" y="15" width="35" height="35"/>
      <rect class="cls-1" x="3" y="18" width="29" height="29"/>
    </g>
    <g id="Ellipse_1" data-name="Ellipse 1">
      <circle class="cls-2" cx="35" cy="15" r="15"/>
      <circle class="cls-1" cx="35" cy="15" r="12"/>
    </g>
    <path d="M68.84,28V10.96h3.47v14.14h8.62v2.89h-12.09Z"/>
    <path d="M82.7,19.52c0-1.75,.26-3.22,.79-4.41,.39-.88,.92-1.66,1.6-2.36s1.42-1.21,2.22-1.55c1.07-.45,2.3-.68,3.7-.68,2.53,0,4.56,.79,6.08,2.36s2.28,3.75,2.28,6.55-.75,4.94-2.26,6.51-3.52,2.35-6.05,2.35-4.59-.78-6.09-2.34-2.26-3.71-2.26-6.44Zm3.57-.12c0,1.95,.45,3.42,1.35,4.42s2.04,1.51,3.42,1.51,2.52-.5,3.4-1.49,1.33-2.49,1.33-4.48-.43-3.44-1.29-4.41-2.01-1.45-3.44-1.45-2.58,.49-3.46,1.47-1.31,2.46-1.31,4.44Z"/>
    <path d="M110.07,21.68v-2.89h7.48v6.84c-.73,.7-1.78,1.32-3.16,1.86s-2.78,.8-4.19,.8c-1.8,0-3.36-.38-4.7-1.13s-2.34-1.83-3.01-3.23-1.01-2.93-1.01-4.58c0-1.79,.38-3.38,1.12-4.77s1.85-2.46,3.29-3.2c1.1-.57,2.47-.86,4.11-.86,2.13,0,3.8,.45,5,1.34s1.97,2.13,2.31,3.71l-3.45,.64c-.24-.84-.7-1.51-1.37-2s-1.5-.73-2.5-.73c-1.52,0-2.72,.48-3.62,1.44s-1.34,2.39-1.34,4.28c0,2.04,.45,3.57,1.36,4.59s2.09,1.53,3.56,1.53c.73,0,1.46-.14,2.19-.43s1.36-.63,1.88-1.04v-2.18h-3.97Z"/>
    <path d="M120.04,19.52c0-1.75,.26-3.22,.79-4.41,.39-.88,.92-1.66,1.6-2.36s1.42-1.21,2.22-1.55c1.07-.45,2.3-.68,3.7-.68,2.53,0,4.56,.79,6.08,2.36s2.28,3.75,2.28,6.55-.75,4.94-2.26,6.51-3.52,2.35-6.05,2.35-4.59-.78-6.09-2.34-2.26-3.71-2.26-6.44Zm3.57-.12c0,1.95,.45,3.42,1.35,4.42s2.04,1.51,3.42,1.51,2.52-.5,3.4-1.49,1.33-2.49,1.33-4.48-.43-3.44-1.29-4.41-2.01-1.45-3.44-1.45-2.58,.49-3.46,1.47-1.31,2.46-1.31,4.44Z"/>
    <path d="M139.3,28V10.82h3.47V28h-3.47Z"/>
    <path d="M146.08,28V10.82h5.57c2.11,0,3.48,.09,4.12,.26,.98,.26,1.81,.82,2.47,1.68s1,1.98,1,3.35c0,1.05-.19,1.94-.57,2.66s-.87,1.28-1.46,1.69-1.19,.68-1.8,.81c-.83,.16-2.03,.25-3.6,.25h-2.26v6.48h-3.47Zm3.47-14.27v4.88h1.9c1.37,0,2.28-.09,2.74-.27s.82-.46,1.08-.84,.39-.83,.39-1.34c0-.62-.18-1.14-.55-1.55s-.83-.66-1.39-.76c-.41-.08-1.25-.12-2.5-.12h-1.68Z"/>
    <path d="M161.21,22.41l3.38-.33c.2,1.13,.62,1.96,1.24,2.5s1.46,.8,2.51,.8c1.12,0,1.96-.24,2.53-.71s.85-1.03,.85-1.66c0-.41-.12-.75-.36-1.04s-.65-.53-1.25-.74c-.41-.14-1.33-.39-2.78-.75-1.86-.46-3.16-1.03-3.91-1.7-1.05-.95-1.58-2.1-1.58-3.46,0-.88,.25-1.69,.74-2.46s1.21-1.34,2.14-1.74,2.06-.6,3.38-.6c2.16,0,3.78,.47,4.87,1.42s1.66,2.21,1.72,3.79l-3.47,.15c-.15-.88-.47-1.52-.96-1.9s-1.22-.58-2.2-.58-1.8,.21-2.37,.62c-.37,.27-.55,.62-.55,1.07,0,.41,.17,.75,.52,1.04,.44,.37,1.5,.75,3.19,1.15s2.94,.81,3.74,1.24,1.44,1.01,1.9,1.75,.69,1.65,.69,2.74c0,.98-.27,1.91-.82,2.77s-1.32,1.5-2.32,1.92-2.25,.63-3.74,.63c-2.17,0-3.84-.5-5-1.51s-1.86-2.47-2.09-4.39Z"/>
    <path d="M178.07,10.82h3.47v9.3c0,1.48,.04,2.43,.13,2.87,.15,.7,.5,1.27,1.06,1.69s1.32,.64,2.29,.64,1.73-.2,2.23-.6,.8-.9,.9-1.48,.15-1.56,.15-2.92V10.82h3.47v9.02c0,2.06-.09,3.52-.28,4.37s-.53,1.57-1.04,2.16-1.18,1.05-2.02,1.4-1.95,.52-3.3,.52c-1.64,0-2.88-.19-3.73-.57s-1.52-.87-2.01-1.48-.82-1.24-.97-1.9c-.23-.98-.34-2.44-.34-4.36V10.82Z"/>
    <path d="M195.38,28V10.82h5.19l3.12,11.72,3.08-11.72h5.2V28h-3.22V14.48l-3.41,13.52h-3.34l-3.4-13.52v13.52h-3.22Z"/>
    <path class="cls-3" d="M67.87,33.41h3.17c.71,0,1.26,.05,1.63,.16,.5,.15,.94,.41,1.29,.79s.63,.84,.82,1.39,.28,1.23,.28,2.03c0,.71-.09,1.32-.26,1.83-.21,.62-.52,1.13-.92,1.52-.3,.29-.71,.52-1.22,.69-.38,.12-.89,.18-1.54,.18h-3.26v-8.59Zm1.73,1.45v5.69h1.29c.48,0,.83-.03,1.05-.08,.28-.07,.51-.19,.7-.36s.34-.44,.45-.83,.18-.91,.18-1.57-.06-1.17-.18-1.53-.28-.63-.49-.83-.48-.33-.8-.4c-.24-.05-.72-.08-1.42-.08h-.78Z"/>
    <path class="cls-3" d="M76.19,37.76c0-.88,.13-1.61,.39-2.2,.2-.44,.46-.83,.8-1.18s.71-.61,1.11-.77c.54-.23,1.15-.34,1.85-.34,1.27,0,2.28,.39,3.04,1.18s1.14,1.88,1.14,3.28-.38,2.47-1.13,3.25-1.76,1.17-3.02,1.17-2.29-.39-3.05-1.17-1.13-1.85-1.13-3.22Zm1.79-.06c0,.97,.22,1.71,.67,2.21s1.02,.75,1.71,.75,1.26-.25,1.7-.75,.67-1.25,.67-2.24-.22-1.72-.65-2.2-1-.73-1.72-.73-1.29,.25-1.73,.74-.66,1.23-.66,2.22Z"/>
    <path class="cls-3" d="M85.92,42v-8.52h1.73v7.07h4.31v1.45h-6.05Z"/>
    <path class="cls-3" d="M92.85,37.76c0-.88,.13-1.61,.39-2.2,.2-.44,.46-.83,.8-1.18s.71-.61,1.11-.77c.54-.23,1.15-.34,1.85-.34,1.27,0,2.28,.39,3.04,1.18s1.14,1.88,1.14,3.28-.38,2.47-1.13,3.25-1.76,1.17-3.02,1.17-2.29-.39-3.05-1.17-1.13-1.85-1.13-3.22Zm1.79-.06c0,.97,.22,1.71,.67,2.21s1.02,.75,1.71,.75,1.26-.25,1.7-.75,.67-1.25,.67-2.24-.22-1.72-.65-2.2-1-.73-1.72-.73-1.29,.25-1.73,.74-.66,1.23-.66,2.22Z"/>
    <path class="cls-3" d="M102.54,42v-8.59h3.65c.92,0,1.58,.08,2,.23s.75,.43,1,.82,.38,.85,.38,1.35c0,.64-.19,1.18-.57,1.6s-.95,.68-1.7,.79c.38,.22,.68,.46,.93,.72s.57,.73,.99,1.39l1.05,1.68h-2.07l-1.25-1.87c-.45-.67-.75-1.09-.91-1.26s-.34-.29-.52-.36-.47-.1-.87-.1h-.35v3.59h-1.73Zm1.73-4.96h1.28c.83,0,1.35-.04,1.56-.11s.37-.19,.49-.36,.18-.39,.18-.64c0-.29-.08-.52-.23-.7s-.37-.29-.65-.34c-.14-.02-.56-.03-1.27-.03h-1.35v2.18Z"/>
    <path class="cls-3" d="M114.1,39.21l1.69-.16c.1,.57,.31,.98,.62,1.25s.73,.4,1.26,.4c.56,0,.98-.12,1.26-.35s.42-.51,.42-.83c0-.2-.06-.38-.18-.52s-.33-.27-.62-.37c-.2-.07-.67-.2-1.39-.38-.93-.23-1.58-.51-1.96-.85-.53-.47-.79-1.05-.79-1.73,0-.44,.12-.85,.37-1.23s.61-.67,1.07-.87,1.03-.3,1.69-.3c1.08,0,1.89,.24,2.43,.71s.83,1.1,.86,1.89l-1.73,.08c-.07-.44-.23-.76-.48-.95s-.61-.29-1.1-.29-.9,.1-1.18,.31c-.18,.13-.28,.31-.28,.53,0,.2,.09,.38,.26,.52,.22,.18,.75,.38,1.59,.57s1.47,.41,1.87,.62,.72,.5,.95,.87,.34,.83,.34,1.37c0,.49-.14,.95-.41,1.38s-.66,.75-1.16,.96-1.12,.31-1.87,.31c-1.09,0-1.92-.25-2.5-.75s-.93-1.23-1.04-2.19Z"/>
    <path class="cls-3" d="M122.49,42v-8.59h1.73v8.59h-1.73Z"/>
    <path class="cls-3" d="M127.81,42v-7.14h-2.55v-1.45h6.83v1.45h-2.54v7.14h-1.73Z"/>
    <path class="cls-3" d="M143.84,42h-1.89l-.75-1.95h-3.43l-.71,1.95h-1.84l3.35-8.59h1.83l3.44,8.59Zm-3.19-3.4l-1.18-3.19-1.16,3.19h2.34Z"/>
    <path class="cls-3" d="M144.74,42v-8.59h2.6l1.56,5.86,1.54-5.86h2.6v8.59h-1.61v-6.76l-1.71,6.76h-1.67l-1.7-6.76v6.76h-1.61Z"/>
    <path class="cls-3" d="M154.76,42v-8.59h6.37v1.45h-4.63v1.9h4.31v1.45h-4.31v2.34h4.8v1.45h-6.53Z"/>
    <path class="cls-3" d="M164.69,42v-7.14h-2.55v-1.45h6.83v1.45h-2.54v7.14h-1.73Z"/>
  </g>
</svg>